# xmcd
#
# Track frame offsets: 
#        150
#        23139
#        39980
#        62261
#        81484
#        99775
#        118303
#        139741
#        158906
#        180454
#        199198
#        217853
#        238973
#        262472
#        285185
#
# Disc length: 4059 seconds
#
# Revision: 1
# Processed by: cddbd v1.5.2PL0 Copyright (c) Steve Scherf et al.
# Submitted via: ExactAudioCopy v1.3
#
DISCID=d00fd90f
DTITLE=雨天 - 遇情 五
DYEAR=2008
DGENRE=Blues
TTITLE0=在路上
TTITLE1=分手那天
TTITLE2=有沒有人告訴你
TTITLE3=忘了我忘了你
TTITLE4=我曾經最愛的女人
TTITLE5=愛死了昨天
TTITLE6=我是不是該安靜的走開
TTITLE7=愛在現實面前
TTITLE8=最後的溫柔
TTITLE9=我一直站在被你傷害的地方
TTITLE10=我是不是你最痛愛的人
TTITLE11=愛上一個不回家的人
TTITLE12=別在傷口撒鹽
TTITLE13=男人眼淚\
TTITLE14=留給我一點溫柔
EXTD=
EXTT0=
EXTT1=
EXTT2=
EXTT3=
EXTT4=
EXTT5=
EXTT6=
EXTT7=
EXTT8=
EXTT9=
EXTT10=
EXTT11=
EXTT12=
EXTT13=
EXTT14=
PLAYORDER=
